<svg xmlns="http://www.w3.org/2000/svg" viewBox="0 0 50 50">
  <path d="M25 4L4 17.34375L4 32.652344L25 46L46 32.65625L46 17.34375 Z M 25 29.183594L19.066406 25.070313L25 21.023438L30.933594 25.070313 Z M 27 17.605469L27 9.949219L40.429688 18.484375L34.410156 22.65625 Z M 23 17.605469L15.589844 22.65625L9.570313 18.484375L23 9.949219 Z M 12.09375 25.042969L8 27.832031L8 22.203125 Z M 15.570313 27.453125L23 32.605469L23 40.050781L9.589844 31.527344 Z M 27 32.605469L34.429688 27.453125L40.410156 31.527344L27 40.050781 Z M 37.90625 25.042969L42 22.203125L42 27.832031Z" fill="#5B5B5B" />
</svg>