<svg xmlns="http://www.w3.org/2000/svg" viewBox="0 0 80 80">
  <path d="M15 9C12.25 9 10 11.25 10 14L10 64C10 66.75 12.25 69 15 69L65 69C67.75 69 70 66.75 70 64L70 14C70 11.25 67.75 9 65 9 Z M 15 11L65 11C66.667969 11 68 12.332031 68 14L68 64C68 65.667969 66.667969 67 65 67L15 67C13.332031 67 12 65.667969 12 64L12 14C12 12.332031 13.332031 11 15 11 Z M 23.902344 16.984375C20.601563 16.984375 17.90625 19.679688 17.90625 22.972656C17.90625 26.269531 20.601563 28.964844 23.902344 28.964844C27.195313 28.964844 29.886719 26.269531 29.886719 22.972656C29.886719 19.679688 27.195313 16.984375 23.902344 16.984375 Z M 36 17C35.449219 17 35 17.449219 35 18C35 18.550781 35.449219 19 36 19C36.550781 19 37 18.550781 37 18C37 17.449219 36.550781 17 36 17 Z M 40 17C39.449219 17 39 17.449219 39 18C39 18.550781 39.449219 19 40 19C40.550781 19 41 18.550781 41 18C41 17.449219 40.550781 17 40 17 Z M 44 17C43.449219 17 43 17.449219 43 18C43 18.550781 43.449219 19 44 19C44.550781 19 45 18.550781 45 18C45 17.449219 44.550781 17 44 17 Z M 48 17C47.449219 17 47 17.449219 47 18C47 18.550781 47.449219 19 48 19C48.550781 19 49 18.550781 49 18C49 17.449219 48.550781 17 48 17 Z M 52 17C51.449219 17 51 17.449219 51 18C51 18.550781 51.449219 19 52 19C52.550781 19 53 18.550781 53 18C53 17.449219 52.550781 17 52 17 Z M 56 17C55.449219 17 55 17.449219 55 18C55 18.550781 55.449219 19 56 19C56.550781 19 57 18.550781 57 18C57 17.449219 56.550781 17 56 17 Z M 60 17C59.449219 17 59 17.449219 59 18C59 18.550781 59.449219 19 60 19C60.550781 19 61 18.550781 61 18C61 17.449219 60.550781 17 60 17 Z M 23.902344 18.984375C26.109375 18.984375 27.886719 20.761719 27.886719 22.972656C27.886719 25.1875 26.109375 26.964844 23.902344 26.964844C21.679688 26.964844 19.90625 25.1875 19.90625 22.972656C19.90625 20.761719 21.679688 18.984375 23.902344 18.984375 Z M 50.101563 30.058594C46.9375 30.058594 44.507813 31.289063 42.84375 32.867188L42.84375 30.746094L32.597656 30.746094L32.597656 60.421875L43.191406 60.421875L43.191406 45.734375C43.191406 43.992188 43.390625 42.359375 43.96875 41.308594C44.550781 40.253906 45.375 39.625 47.351563 39.625C49.246094 39.625 49.851563 40.289063 50.3125 41.453125C50.773438 42.621094 50.824219 44.363281 50.824219 45.960938L50.824219 60.421875L60.421875 60.421875L60.421875 58.421875L61.421875 59.421875L61.421875 44.242188C61.421875 40.441406 61.046875 36.972656 59.375 34.324219C57.703125 31.671875 54.675781 30.058594 50.101563 30.058594 Z M 18.59375 30.746094L18.59375 60.421875L29.203125 60.421875L29.203125 30.746094 Z M 50.101563 32.058594C54.238281 32.058594 56.371094 33.308594 57.683594 35.390625C58.996094 37.46875 59.421875 40.585938 59.421875 44.242188L59.421875 58.421875L52.824219 58.421875L52.824219 45.960938C52.824219 44.351563 52.84375 42.417969 52.171875 40.71875C51.503906 39.023438 49.871094 37.625 47.351563 37.625C44.851563 37.625 43.097656 38.742188 42.21875 40.34375C41.339844 41.941406 41.191406 43.863281 41.191406 45.734375L41.191406 58.421875L34.597656 58.421875L34.597656 32.746094L40.84375 32.746094L40.84375 36.527344L42.566406 36.527344L42.847656 35.996094C43.820313 34.15625 46.28125 32.058594 50.101563 32.058594 Z M 20.59375 32.746094L27.203125 32.746094L27.203125 58.421875L20.59375 58.421875Z" fill="#5B5B5B" />
</svg>